<?xml version="1.0" encoding="iso-8859-1"?>
<!-- Uploaded to: SVG Repo, www.svgrepo.com, Generator: SVG Repo Mixer Tools -->
<svg version="1.1" id="Layer_1" xmlns="http://www.w3.org/2000/svg" xmlns:xlink="http://www.w3.org/1999/xlink" 
	 viewBox="0 0 512 512" xml:space="preserve">
<polygon style="fill:#BFDEFF;" points="367.456,365.714 144.544,365.714 182.567,308.245 329.433,308.245 "/>
<rect x="144.541" y="365.714" style="fill:#2969B0;" width="222.908" height="52.245"/>
<path style="fill:#FFAC3D;" d="M308.463,141.061H203.537c-13.542,0-26.838,3.608-38.523,10.451l-55.299,32.39v87.771l57.048,28.525
	c10.584,5.292,22.254,8.047,34.088,8.047h110.298c11.833,0,23.504-2.755,34.088-8.047l57.049-28.525v-87.771l-55.299-32.39
	C335.302,144.669,322.005,141.061,308.463,141.061z"/>
<g>
	<rect x="52.245" y="94.041" style="fill:#2969B0;" width="57.469" height="229.878"/>
	<rect x="402.286" y="94.041" style="fill:#2969B0;" width="57.469" height="229.878"/>
</g>
<rect x="224.653" y="195.918" style="fill:#EBEBEB;" width="62.694" height="57.469"/>
<g>
	<path style="fill:#A8A8A8;" d="M31.695,258.612h20.55v-67.918h-20.55c-11.734,0-21.246,9.512-21.246,21.246v25.427
		C10.449,249.101,19.961,258.612,31.695,258.612z"/>
	<path style="fill:#A8A8A8;" d="M459.755,258.612h20.55c11.734,0,21.246-9.512,21.246-21.246V211.94
		c0-11.734-9.512-21.246-21.246-21.246h-20.55V258.612z"/>
</g>
<g>
	<path style="fill:#231F20;" d="M287.347,185.469h-62.694c-5.77,0-10.449,4.678-10.449,10.449v57.469
		c0,5.771,4.679,10.449,10.449,10.449h62.694c5.77,0,10.449-4.678,10.449-10.449v-57.469
		C297.796,190.147,293.117,185.469,287.347,185.469z M276.898,242.939h-41.796v-36.571h41.796V242.939z"/>
	<path style="fill:#231F20;" d="M480.25,180.245h-9.99c-0.03,0-0.055-0.025-0.055-0.055V94.096c0-5.801-4.703-10.504-10.504-10.504
		h-57.359c-5.801,0-10.504,4.703-10.504,10.504v71.479c0,0.043-0.047,0.07-0.084,0.048l-39.473-23.119
		c-13.295-7.788-28.424-11.892-43.831-11.892H203.552c-15.408,0-30.537,4.104-43.832,11.892l-39.473,23.119
		c-0.037,0.022-0.084-0.005-0.084-0.048V94.096c0-5.801-4.703-10.504-10.504-10.504H52.3c-5.801,0-10.504,4.703-10.504,10.504
		v86.093c0,0.03-0.025,0.055-0.055,0.055h-9.99C14.215,180.245,0,194.46,0,211.995v25.316c0,17.535,14.215,31.75,31.75,31.75h9.99
		c0.03,0,0.055,0.025,0.055,0.055v54.746c0,5.801,4.703,10.504,10.504,10.504h57.359c5.801,0,10.504-4.703,10.504-10.504V288.67
		c0-0.042,0.044-0.068,0.08-0.05l41.847,20.923c1.765,0.882,3.563,1.696,5.385,2.454c0.032,0.014,0.044,0.052,0.025,0.082
		l-31.672,47.869c-1.155,1.745-1.716,3.757-1.714,5.776l-0.021-0.01v41.741c0,0.03-0.025,0.055-0.055,0.055H31.755
		c-5.594,0-10.502,4.219-10.838,9.803c-0.365,6.065,4.445,11.096,10.429,11.096h408.147c5.594,0,10.502-4.219,10.838-9.803
		c0.365-6.064-4.445-11.095-10.429-11.095H377.96c-0.03,0-0.055-0.025-0.055-0.055v-41.741l-0.021,0.01
		c0.002-2.019-0.559-4.031-1.714-5.776l-31.672-47.869c-0.019-0.029-0.007-0.068,0.025-0.082c1.822-0.759,3.622-1.572,5.385-2.454
		l41.847-20.923c0.037-0.019,0.08,0.008,0.08,0.05v35.193c0,5.801,4.703,10.504,10.504,10.504H459.7
		c5.801,0,10.504-4.703,10.504-10.504v-54.746c0-0.03,0.025-0.055,0.055-0.055h9.99c17.535,0,31.75-14.215,31.75-31.75v-25.316
		C512,194.46,497.785,180.245,480.25,180.245z M31.75,248.163c-5.994,0-10.852-4.859-10.852-10.852v-25.316
		c0-5.994,4.859-10.852,10.852-10.852h9.99c0.03,0,0.055,0.025,0.055,0.055v46.91c0,0.03-0.025,0.055-0.055,0.055L31.75,248.163
		L31.75,248.163z M99.21,313.469H62.749c-0.03,0-0.055-0.025-0.055-0.055V104.545c0-0.03,0.025-0.055,0.055-0.055H99.21
		c0.03,0,0.055,0.025,0.055,0.055v208.869C99.265,313.444,99.24,313.469,99.21,313.469z M356.952,407.51H155.048
		c-0.03,0-0.055-0.025-0.055-0.055v-31.236c0-0.03,0.025-0.055,0.055-0.055h201.904c0.03,0,0.055,0.025,0.055,0.055v31.236
		C357.007,407.485,356.982,407.51,356.952,407.51z M323.834,318.719l24.123,36.461c0.024,0.037-0.002,0.087-0.046,0.087H164.09
		c-0.044,0-0.071-0.049-0.046-0.087l24.123-36.461c0.01-0.016,0.028-0.025,0.046-0.025h135.574
		C323.807,318.694,323.823,318.703,323.834,318.719z M359.829,281.13v-45.619c0-5.593-4.218-10.501-9.802-10.838
		c-6.064-0.366-11.096,4.444-11.096,10.429v56.471c0,0.022-0.013,0.042-0.032,0.051c-8.658,4.026-18.204,6.171-27.75,6.171H200.851
		c-9.546,0-19.092-2.145-27.75-6.171c-0.02-0.009-0.032-0.029-0.032-0.051v-56.063c0-5.593-4.218-10.501-9.802-10.838
		c-6.064-0.366-11.096,4.444-11.096,10.429v46.028c0,0.042-0.044,0.068-0.08,0.05l-31.896-15.948c-0.019-0.009-0.03-0.028-0.03-0.05
		v-75.259c0-0.02,0.01-0.038,0.027-0.048l50.09-29.339c10.092-5.911,21.576-9.027,33.271-9.027h104.896
		c11.696,0,23.179,3.116,33.271,9.027l50.09,29.339c0.017,0.01,0.027,0.028,0.027,0.048v75.259c0,0.021-0.012,0.041-0.03,0.05
		l-31.896,15.948C359.873,281.198,359.829,281.171,359.829,281.13z M449.251,313.469H412.79c-0.03,0-0.055-0.025-0.055-0.055
		V104.545c0-0.03,0.025-0.055,0.055-0.055h36.461c0.03,0,0.055,0.025,0.055,0.055v208.869
		C449.306,313.444,449.281,313.469,449.251,313.469z M491.102,237.311c0,5.994-4.859,10.852-10.852,10.852h-9.99
		c-0.03,0-0.055-0.025-0.055-0.055v-46.91c0-0.03,0.025-0.055,0.055-0.055h9.99c5.994,0,10.852,4.859,10.852,10.852V237.311z"/>
	<path style="fill:#231F20;" d="M161.973,186.273c-5.584,0.336-9.802,5.244-9.802,10.838v0.228c0,5.593,4.218,10.501,9.802,10.838
		c6.064,0.366,11.096-4.444,11.096-10.429v-1.045C173.069,190.717,168.036,185.907,161.973,186.273z"/>
	<path style="fill:#231F20;" d="M349.38,186.253c-5.77,0-10.449,4.678-10.449,10.449v1.045c0,5.771,4.679,10.449,10.449,10.449
		s10.449-4.678,10.449-10.449v-1.045C359.829,190.931,355.151,186.253,349.38,186.253z"/>
	<path style="fill:#231F20;" d="M479.608,407.51c-2.748,0-5.444,1.118-7.387,3.062c-1.943,1.944-3.062,4.639-3.062,7.387
		s1.117,5.444,3.062,7.387c1.945,1.944,4.639,3.062,7.387,3.062c2.748,0,5.444-1.118,7.386-3.062
		c1.943-1.943,3.063-4.639,3.063-7.387s-1.118-5.444-3.063-7.387C485.052,408.628,482.356,407.51,479.608,407.51z"/>
</g>
</svg>